<svg xmlns="http://www.w3.org/2000/svg" viewBox="0 0 430 850" preserveAspectRatio="xMidYMid slice"><defs><radialGradient id="glow"><stop stop-color="#ffb72a" stop-opacity=".85"/><stop offset=".3" stop-color="#d27700" stop-opacity=".22"/><stop offset="1" stop-color="#000" stop-opacity="0"/></radialGradient><linearGradient id="night" x2="0" y2="1"><stop stop-color="#05080c"/><stop offset=".42" stop-color="#13100b"/><stop offset=".68" stop-color="#261300"/><stop offset="1" stop-color="#020305"/></linearGradient><pattern id="crowd" width="19" height="12" patternUnits="userSpaceOnUse"><circle cx="2" cy="3" r="1" fill="#ffbf38" opacity=".75"/><circle cx="14" cy="8" r="1.2" fill="#d8800b" opacity=".6"/><circle cx="9" cy="1" r=".65" fill="#fff0ad" opacity=".5"/></pattern><filter id="blur"><feGaussianBlur stdDeviation="6"/></filter></defs><rect width="430" height="850" fill="url(#night)"/><ellipse cx="215" cy="365" rx="340" ry="290" fill="url(#glow)"/><g opacity=".7"><path d="M-80 300Q215 155 510 300" fill="none" stroke="#ecaa27" stroke-width="3"/><path d="M-80 322Q215 175 510 322" fill="none" stroke="#d99216" stroke-width="2"/></g><g fill="#fff1a5"><g transform="translate(5 240) rotate(-19)"><rect width="125" height="19" rx="4" fill="#47321c"/><g fill="#ffedaf"><rect x="6" y="4" width="8" height="11"/><rect x="21" y="4" width="8" height="11"/><rect x="36" y="4" width="8" height="11"/><rect x="51" y="4" width="8" height="11"/><rect x="66" y="4" width="8" height="11"/><rect x="81" y="4" width="8" height="11"/><rect x="96" y="4" width="8" height="11"/><rect x="111" y="4" width="8" height="11"/></g></g><g transform="translate(310 200) rotate(19)"><rect width="125" height="19" rx="4" fill="#47321c"/><g fill="#ffedaf"><rect x="6" y="4" width="8" height="11"/><rect x="21" y="4" width="8" height="11"/><rect x="36" y="4" width="8" height="11"/><rect x="51" y="4" width="8" height="11"/><rect x="66" y="4" width="8" height="11"/><rect x="81" y="4" width="8" height="11"/><rect x="96" y="4" width="8" height="11"/><rect x="111" y="4" width="8" height="11"/></g></g></g><path d="M0 450Q215 360 430 450V850H0Z" fill="#110e0b"/><path d="M0 460Q215 380 430 460V850H0Z" fill="url(#crowd)"/><path d="M0 575Q215 480 430 575" fill="none" stroke="#e6a82c" stroke-width="3" opacity=".55"/><path d="M0 615Q215 525 430 615" fill="none" stroke="#e6a82c" stroke-width="2" opacity=".5"/><path d="M0 700Q215 610 430 700V850H0Z" fill="#050608" opacity=".75"/><g fill="#020304"><path d="M0 735l10-35 10 0 12 35 10-22 12 22 9-37 14 1 10 36 9-26 13 25 12-45 12 0 12 46 11-28 15 28 12-41 14 0 12 41 9-25 15 25 9-37 15 0 13 37 12-30 14 30 11-40 12 0 12 40 9-26 13 26 11-40 13 0 14 40 10-26 13 26 9-32 11 0 12 32V850H0Z"/></g></svg>
